HIERARCHY
ROOT Hips
{
	OFFSET 0.000000 0.000000 0.000000
	CHANNELS 6 Xposition Yposition Zposition Zrotation Yrotation Xrotation 
	JOINT LeftUpLeg_virtual
	{
		OFFSET 0.000000 0.000000 0.000000
		CHANNELS 3 Zrotation Yrotation Xrotation
		JOINT LeftUpLeg
		{
			OFFSET 10.205400 -3.823500 0.155100
			CHANNELS 3 Zrotation Yrotation Xrotation
			JOINT LeftLeg
			{
				OFFSET 0.708757 -12.982077 0.567790
				CHANNELS 3 Zrotation Yrotation Xrotation
				JOINT LeftFoot
				{
					OFFSET -0.708756 -10.717838 -2.184338
					CHANNELS 3 Zrotation Yrotation Xrotation
					JOINT LeftToeBase
					{
						OFFSET 0.108149 -7.191104 7.560241
						CHANNELS 3 Zrotation Yrotation Xrotation
						End Site
						{
							OFFSET 0.000000 0.000000 0.000000
						}
					}
				}
			}
		}
	}
	JOINT RightUpLeg_virtual
	{
		OFFSET 0.000000 0.000000 0.000000
		CHANNELS 3 Zrotation Yrotation Xrotation
		JOINT RightUpLeg
		{
			OFFSET -10.205400 -3.823500 0.005500
			CHANNELS 3 Zrotation Yrotation Xrotation
			JOINT RightLeg
			{
				OFFSET -0.708756 -12.982134 0.610632
				CHANNELS 3 Zrotation Yrotation Xrotation
				JOINT RightFoot
				{
					OFFSET 0.708754 -10.717769 -1.945823
					CHANNELS 3 Zrotation Yrotation Xrotation
					JOINT RightToeBase
					{
						OFFSET -0.108140 -7.191069 7.372968
						CHANNELS 3 Zrotation Yrotation Xrotation
						End Site
						{
							OFFSET 0.000000 0.000000 0.000000
						}
					}
				}
			}
		}
	}
	JOINT Spine_virtual
	{
		OFFSET 0.000000 0.000000 0.000000
		CHANNELS 3 Zrotation Yrotation Xrotation
		JOINT Spine
		{
			OFFSET 0.000000 6.876099 0.125700
			CHANNELS 3 Zrotation Yrotation Xrotation
			JOINT Spine1
			{
				OFFSET 0.000000 8.022060 0.146608
				CHANNELS 3 Zrotation Yrotation Xrotation
				JOINT Spine2
				{
					OFFSET 0.000000 9.168068 0.167552
					CHANNELS 3 Zrotation Yrotation Xrotation
					JOINT Neck_virtual
					{
						OFFSET 0.000000 0.000000 0.000000
						CHANNELS 3 Zrotation Yrotation Xrotation
						JOINT Neck
						{
							OFFSET 0.000000 10.314075 0.188496
							CHANNELS 3 Zrotation Yrotation Xrotation
							JOINT Head
							{
								OFFSET 0.000000 7.643700 -2.377400
								CHANNELS 3 Zrotation Yrotation Xrotation
								End Site
								{
									OFFSET 0.000000 0.000000 0.000000
								}
							}
						}
					}
					JOINT LeftShoulder_virtual
					{
						OFFSET 0.000000 0.000000 0.000000
						CHANNELS 3 Zrotation Yrotation Xrotation
						JOINT LeftShoulder
						{
							OFFSET 4.392200 8.824978 0.174984
							CHANNELS 3 Zrotation Yrotation Xrotation
							JOINT LeftArm
							{
								OFFSET 8.771219 -2.981674 -0.026999
								CHANNELS 3 Zrotation Yrotation Xrotation
								JOINT LeftForeArm
								{
									OFFSET 8.512804 0.000000 -0.000000
									CHANNELS 3 Zrotation Yrotation Xrotation
									JOINT LeftHand
									{
										OFFSET 18.484802 0.000000 -0.000000
										CHANNELS 3 Zrotation Yrotation Xrotation
										End Site
										{
											OFFSET 0.000000 0.000000 0.000000
										}
									}
								}
							}
						}
					}
					JOINT RightShoulder_virtual
					{
						OFFSET 0.000000 0.000000 0.000000
						CHANNELS 3 Zrotation Yrotation Xrotation
						JOINT RightShoulder
						{
							OFFSET -4.392200 8.824993 0.141379
							CHANNELS 3 Zrotation Yrotation Xrotation
							JOINT RightArm
							{
								OFFSET -8.771282 -2.981682 -0.094208
								CHANNELS 3 Zrotation Yrotation Xrotation
								JOINT RightForeArm
								{
									OFFSET -8.494598 0.000000 0.000000
									CHANNELS 3 Zrotation Yrotation Xrotation
									JOINT RightHand
									{
										OFFSET -18.483803 0.000000 0.000001
										CHANNELS 3 Zrotation Yrotation Xrotation
										End Site
										{
											OFFSET 0.000000 0.000000 0.000000
										}
									}
								}
							}
						}
					}
				}
			}
		}
	}
}
MOTION
Frames: 9
Frame Time: 0.033333
0.625501 35.942387 -55.984859 179.875941 -19.751189 -179.606832 0.579840 -4.232858 6.348170 -8.823547 -4.302710 -24.351448 18.972963 1.971157 27.603617 -9.339848 0.011241 6.666434 0.000000 0.000000 0.000000 2.780449 -0.548207 5.538441 -9.451631 10.587974 -22.649464 -8.469031 7.465287 29.343886 17.058387 7.607710 8.686436 0.000000 0.000000 0.000000 2.599305 0.051352 -9.216615 3.553069 5.890455 -6.009708 -1.365787 -4.665470 10.384628 0.008194 0.030533 0.065617 -1.639906 -3.183612 12.794474 5.283661 -13.419079 17.273342 0.000000 0.000000 0.000000 0.109864 -2.521059 9.590450 -9.389325 -4.804025 2.478771 -45.724841 32.852568 33.067350 -12.699474 -69.839504 14.540873 0.000000 0.000000 0.000000 -3.773424 -1.451367 9.222564 22.619365 0.507025 0.072684 36.546478 -4.723660 -24.101461 -5.513434 56.124706 -8.198026 0.000000 0.000000 0.000000 
0.044409 35.902969 -55.544323 179.785892 -19.017376 -179.649206 0.469025 -3.991531 6.278323 -10.561584 -4.738074 -24.176074 19.577153 2.592470 27.046866 -8.270510 0.527909 6.637172 0.000000 0.000000 0.000000 2.967833 -0.078377 5.501801 -10.405003 9.883968 -24.109383 -8.768336 6.789702 31.138727 16.295324 7.148948 9.016932 0.000000 0.000000 0.000000 2.551100 0.073208 -9.085455 3.753591 5.778851 -6.063844 -1.498273 -4.488779 10.393390 0.029649 0.039553 0.060834 -1.862454 -2.989110 12.794487 4.870463 -13.402698 17.306939 0.000000 0.000000 0.000000 -0.082600 -2.452162 9.565443 -9.459949 -4.608254 2.366016 -45.278270 32.724072 33.640519 -12.634403 -69.935953 14.616359 0.000000 0.000000 0.000000 -3.972646 -1.389668 9.141326 22.774648 0.435759 0.049872 36.950258 -4.666725 -22.852360 -5.156185 54.801780 -7.568389 0.000000 0.000000 0.000000 
-0.455434 35.943333 -55.254955 179.711730 -18.615766 -179.668714 0.280695 -4.027914 6.407335 -11.912660 -4.920368 -23.766418 20.135439 3.548175 25.923254 -7.495136 0.986402 7.136400 0.000000 0.000000 0.000000 3.407567 -0.588917 4.979362 -10.383150 7.895851 -25.615784 -9.070896 6.202558 34.051867 14.481196 5.687291 9.898884 0.000000 0.000000 0.000000 2.422294 0.074648 -9.010416 3.742627 5.474806 -6.261118 -1.604361 -4.412419 10.280733 0.046673 0.077034 0.068007 -1.985037 -2.796583 12.655663 4.498426 -13.336919 17.330990 0.000000 0.000000 0.000000 -0.135832 -2.213663 9.488728 -9.523407 -4.527804 2.361720 -44.786534 32.903207 34.134731 -12.961083 -70.229289 15.107325 0.000000 0.000000 0.000000 -4.055851 -1.197107 8.926551 22.932386 0.321959 0.053137 37.516337 -5.269943 -21.563385 -4.845456 53.542030 -6.954707 0.000000 0.000000 0.000000 
-0.853449 36.033058 -55.122379 179.564280 -18.652640 -179.550387 0.008585 -4.425066 6.557802 -12.812010 -5.072159 -23.197675 20.655838 4.745531 24.478834 -7.098918 1.328847 8.017871 0.000000 0.000000 0.000000 3.312726 -1.064069 4.664648 -9.573483 6.176852 -26.859328 -9.393375 4.372085 36.954411 12.010651 3.976499 10.927853 0.000000 0.000000 0.000000 2.168482 -0.122156 -9.070212 3.540366 5.180672 -6.631674 -1.690438 -4.236522 10.121413 0.033009 0.085417 0.060951 -1.952150 -2.703944 12.479615 4.113061 -13.356107 17.312098 0.000000 0.000000 0.000000 -0.109546 -2.028441 9.287433 -9.615400 -4.273093 2.348117 -44.191939 33.427304 34.710185 -12.963488 -70.659605 15.235845 0.000000 0.000000 0.000000 -3.981381 -0.956194 8.745724 23.049271 0.222795 -0.017879 38.181690 -6.466123 -20.187698 -4.631590 52.097524 -6.429115 0.000000 0.000000 0.000000 
-1.190087 36.128071 -55.094021 179.640409 -19.024413 -179.577694 -0.103445 -4.755181 6.745159 -13.354161 -5.240560 -22.570271 20.949619 6.057162 23.182816 -7.100451 1.441222 8.741883 0.000000 0.000000 0.000000 3.328465 -1.450417 4.644362 -8.958818 5.823948 -27.588633 -9.390605 3.238927 38.739716 10.658758 3.815985 11.866558 0.000000 0.000000 0.000000 2.036340 -0.576760 -9.159728 3.260973 5.093505 -6.999137 -1.526146 -3.757635 9.945174 0.049478 0.114050 0.031819 -1.952923 -2.346462 12.200238 3.797580 -13.096627 17.237649 0.000000 0.000000 0.000000 -0.095574 -1.837761 9.111577 -9.646578 -4.201277 2.327512 -43.775468 34.075493 35.124261 -13.100030 -71.302305 15.522189 0.000000 0.000000 0.000000 -3.956654 -0.799207 8.507214 23.152828 0.134150 -0.049926 38.907664 -7.992493 -18.852084 -4.413127 50.448563 -5.864861 0.000000 0.000000 0.000000 
-1.489611 36.178844 -55.128159 179.598895 -20.068684 -179.588896 -0.300918 -4.964059 6.789627 -13.775178 -5.541711 -22.037788 21.013852 6.972891 22.284054 -7.212334 1.459969 9.158173 0.000000 0.000000 0.000000 3.201523 -1.732120 4.682248 -8.356193 6.244884 -28.017175 -8.843870 3.504004 39.444564 10.932716 4.474225 12.225750 0.000000 0.000000 0.000000 1.702279 -0.495457 -9.239435 2.833024 4.668147 -7.363890 -1.445092 -3.697575 9.781654 0.036749 0.134134 0.047100 -1.861166 -2.025309 11.907959 3.462565 -12.957315 17.230628 0.000000 0.000000 0.000000 0.073111 -1.539658 8.873492 -9.704671 -4.134215 2.398881 -43.453578 34.829006 35.383368 -13.259855 -71.928162 15.865291 0.000000 0.000000 0.000000 -3.823899 -0.494137 8.286591 23.262986 0.400972 0.254160 39.485850 -9.442931 -17.363705 -4.596516 48.517176 -5.585113 0.000000 0.000000 0.000000 
-1.775918 36.173786 -55.156666 179.576861 -21.576110 -179.592543 -0.463974 -5.003065 6.677907 -14.134925 -5.959672 -21.765912 20.900862 7.439131 21.978470 -7.298950 1.414942 9.194048 0.000000 0.000000 0.000000 3.153126 -1.804459 4.674901 -7.405826 6.640055 -28.066724 -8.456986 3.937801 39.166699 11.198860 5.007929 11.671498 0.000000 0.000000 0.000000 1.442578 -0.580551 -9.352166 2.386297 4.341051 -7.673887 -1.354797 -3.513931 9.690289 0.035493 0.093054 0.033795 -1.763310 -1.753243 11.655028 3.235065 -12.741282 17.257074 0.000000 0.000000 0.000000 0.191574 -1.231919 8.695421 -9.788001 -4.089113 2.285156 -43.234097 35.514375 35.465518 -13.457168 -72.348055 16.203355 0.000000 0.000000 0.000000 -3.700459 -0.186884 8.202845 23.277373 1.015317 0.432764 39.815314 -10.850932 -15.237414 -4.971660 46.170737 -5.373785 0.000000 0.000000 0.000000 
-2.082069 36.118450 -55.194721 179.616818 -23.653181 -179.646024 -0.590644 -5.086440 6.500976 -14.492434 -6.536368 -21.800127 20.691505 7.499791 22.394749 -7.348896 1.266048 8.854414 0.000000 0.000000 0.000000 3.063288 -2.131689 4.632668 -6.351339 7.276888 -27.999601 -8.345558 4.076623 38.397295 11.318005 5.271105 11.137404 0.000000 0.000000 0.000000 1.213104 -0.566109 -9.548172 1.941981 4.070361 -7.937365 -1.305603 -3.361428 9.717583 0.034145 0.074691 0.067664 -1.660457 -1.586458 11.540714 3.068830 -12.432148 17.388810 0.000000 0.000000 0.000000 0.305691 -1.107272 8.616321 -9.923736 -4.262633 2.254847 -43.206021 35.927604 35.285256 -13.267083 -72.650502 16.151055 0.000000 0.000000 0.000000 -3.573210 -0.038359 8.215010 23.237764 1.849513 0.908291 39.932790 -12.163622 -12.389416 -5.278044 43.776718 -4.960852 0.000000 0.000000 0.000000 
-2.390146 36.035866 -55.269833 179.568241 -25.832962 -179.622705 -0.694226 -5.118682 6.336231 -14.811497 -7.272413 -22.043483 20.454846 7.504850 23.163712 -7.374538 1.042109 8.478999 0.000000 0.000000 0.000000 2.947428 -2.190389 4.509534 -5.298426 8.207050 -27.788162 -8.479355 4.039495 37.521846 11.495792 5.356608 10.710835 0.000000 0.000000 0.000000 0.952071 -0.530876 -9.892233 1.582500 3.891700 -8.222117 -1.303113 -3.233500 9.839338 0.025709 0.064699 0.027248 -1.625499 -1.462976 11.583795 3.001106 -12.101924 17.654697 0.000000 0.000000 0.000000 0.376743 -0.948961 8.607529 -10.069323 -4.407594 2.108376 -43.268849 36.012319 34.770762 -13.285710 -72.755216 16.333677 0.000000 0.000000 0.000000 -3.522931 0.143519 8.351364 23.117446 3.059637 1.371609 39.873620 -13.622325 -7.863432 -5.822468 41.661162 -4.589120 0.000000 0.000000 0.000000 
